<mxfile host="www.draw.io" modified="2019-11-10T14:33:49.958Z" agent="Mozilla/5.0 (X11; Linux x86_64) AppleWebKit/537.36 (KHTML, like Gecko) Chrome/78.0.3904.70 Safari/537.36" etag="q_AkFZkSgvBMSnDRFbjB" version="12.2.3" type="github" pages="1">
  <diagram id="rqf7lnbeEpd9njd3K11h" name="Page-1">
    <mxGraphModel dx="854" dy="507" grid="1" gridSize="10" guides="1" tooltips="1" connect="1" arrows="1" fold="1" page="1" pageScale="1" pageWidth="827" pageHeight="1169" math="0" shadow="0">
      <root>
        <mxCell id="0"/>
        <mxCell id="1" parent="0"/>
        <mxCell id="9C-M-rWcRn2ACBWdOzfR-1" value="" style="rounded=0;whiteSpace=wrap;html=1;" parent="1" vertex="1">
          <mxGeometry x="40" y="40" width="640" height="480" as="geometry"/>
        </mxCell>
        <mxCell id="9C-M-rWcRn2ACBWdOzfR-3" value="Memory" style="shape=loopLimit;whiteSpace=wrap;html=1;direction=west;size=46;" parent="1" vertex="1">
          <mxGeometry x="280" y="120" width="160" height="160" as="geometry"/>
        </mxCell>
        <mxCell id="9C-M-rWcRn2ACBWdOzfR-9" value="Inst&lt;br&gt;i+3" style="whiteSpace=wrap;html=1;aspect=fixed;" parent="1" vertex="1">
          <mxGeometry x="200" y="40" width="40" height="40" as="geometry"/>
        </mxCell>
        <mxCell id="9C-M-rWcRn2ACBWdOzfR-10" value="" style="endArrow=classic;html=1;exitX=0.5;exitY=1;exitDx=0;exitDy=0;entryX=1.006;entryY=0.363;entryDx=0;entryDy=0;entryPerimeter=0;" parent="1" source="9C-M-rWcRn2ACBWdOzfR-13" target="9C-M-rWcRn2ACBWdOzfR-3" edge="1">
          <mxGeometry width="50" height="50" relative="1" as="geometry">
            <mxPoint x="70" y="430" as="sourcePoint"/>
            <mxPoint x="90" y="420" as="targetPoint"/>
            <Array as="points">
              <mxPoint x="100" y="222"/>
            </Array>
          </mxGeometry>
        </mxCell>
        <mxCell id="9C-M-rWcRn2ACBWdOzfR-11" value="Inst&lt;br&gt;i+2" style="whiteSpace=wrap;html=1;aspect=fixed;" parent="1" vertex="1">
          <mxGeometry x="160" y="40" width="40" height="40" as="geometry"/>
        </mxCell>
        <mxCell id="9C-M-rWcRn2ACBWdOzfR-12" value="Inst&lt;br&gt;i+1" style="whiteSpace=wrap;html=1;aspect=fixed;" parent="1" vertex="1">
          <mxGeometry x="120" y="40" width="40" height="40" as="geometry"/>
        </mxCell>
        <mxCell id="9C-M-rWcRn2ACBWdOzfR-13" value="Inst&lt;br&gt;i" style="whiteSpace=wrap;html=1;aspect=fixed;" parent="1" vertex="1">
          <mxGeometry x="80" y="40" width="40" height="40" as="geometry"/>
        </mxCell>
        <mxCell id="9C-M-rWcRn2ACBWdOzfR-14" value="" style="endArrow=classic;html=1;exitX=0.5;exitY=1;exitDx=0;exitDy=0;entryX=1;entryY=0.5;entryDx=0;entryDy=0;" parent="1" source="9C-M-rWcRn2ACBWdOzfR-12" target="9C-M-rWcRn2ACBWdOzfR-3" edge="1">
          <mxGeometry width="50" height="50" relative="1" as="geometry">
            <mxPoint x="40" y="470" as="sourcePoint"/>
            <mxPoint x="90" y="420" as="targetPoint"/>
            <Array as="points">
              <mxPoint x="140" y="200"/>
            </Array>
          </mxGeometry>
        </mxCell>
        <mxCell id="9C-M-rWcRn2ACBWdOzfR-15" value="" style="endArrow=classic;html=1;exitX=0.5;exitY=1;exitDx=0;exitDy=0;entryX=1;entryY=0.75;entryDx=0;entryDy=0;" parent="1" source="9C-M-rWcRn2ACBWdOzfR-9" target="9C-M-rWcRn2ACBWdOzfR-3" edge="1">
          <mxGeometry width="50" height="50" relative="1" as="geometry">
            <mxPoint x="40" y="470" as="sourcePoint"/>
            <mxPoint x="90" y="420" as="targetPoint"/>
            <Array as="points">
              <mxPoint x="220" y="160"/>
            </Array>
          </mxGeometry>
        </mxCell>
        <mxCell id="9C-M-rWcRn2ACBWdOzfR-16" value="" style="endArrow=classic;html=1;exitX=0.5;exitY=1;exitDx=0;exitDy=0;entryX=0.994;entryY=0.619;entryDx=0;entryDy=0;entryPerimeter=0;" parent="1" source="9C-M-rWcRn2ACBWdOzfR-11" target="9C-M-rWcRn2ACBWdOzfR-3" edge="1">
          <mxGeometry width="50" height="50" relative="1" as="geometry">
            <mxPoint x="40" y="470" as="sourcePoint"/>
            <mxPoint x="90" y="420" as="targetPoint"/>
            <Array as="points">
              <mxPoint x="180" y="180"/>
            </Array>
          </mxGeometry>
        </mxCell>
        <mxCell id="9C-M-rWcRn2ACBWdOzfR-17" value="" style="endArrow=classic;html=1;exitX=0;exitY=0.5;exitDx=0;exitDy=0;entryX=0.5;entryY=0;entryDx=0;entryDy=0;" parent="1" source="9C-M-rWcRn2ACBWdOzfR-3" target="9C-M-rWcRn2ACBWdOzfR-20" edge="1">
          <mxGeometry width="50" height="50" relative="1" as="geometry">
            <mxPoint x="120" y="470" as="sourcePoint"/>
            <mxPoint x="130" y="460" as="targetPoint"/>
            <Array as="points">
              <mxPoint x="580" y="200"/>
            </Array>
          </mxGeometry>
        </mxCell>
        <mxCell id="9C-M-rWcRn2ACBWdOzfR-19" value="Inst1" style="whiteSpace=wrap;html=1;aspect=fixed;" parent="1" vertex="1">
          <mxGeometry x="600" y="480" width="40" height="40" as="geometry"/>
        </mxCell>
        <mxCell id="9C-M-rWcRn2ACBWdOzfR-20" value="Inst0" style="whiteSpace=wrap;html=1;aspect=fixed;" parent="1" vertex="1">
          <mxGeometry x="560" y="480" width="40" height="40" as="geometry"/>
        </mxCell>
        <mxCell id="9C-M-rWcRn2ACBWdOzfR-21" value="" style="endArrow=classic;html=1;exitX=0;exitY=0.75;exitDx=0;exitDy=0;entryX=0.5;entryY=0;entryDx=0;entryDy=0;" parent="1" source="9C-M-rWcRn2ACBWdOzfR-3" target="9C-M-rWcRn2ACBWdOzfR-19" edge="1">
          <mxGeometry width="50" height="50" relative="1" as="geometry">
            <mxPoint x="120" y="470" as="sourcePoint"/>
            <mxPoint x="170" y="420" as="targetPoint"/>
            <Array as="points">
              <mxPoint x="620" y="160"/>
            </Array>
          </mxGeometry>
        </mxCell>
        <mxCell id="9C-M-rWcRn2ACBWdOzfR-35" style="edgeStyle=orthogonalEdgeStyle;rounded=1;orthogonalLoop=1;jettySize=auto;html=1;exitX=1;exitY=0.75;exitDx=0;exitDy=0;entryX=0.75;entryY=1;entryDx=0;entryDy=0;" parent="1" source="9C-M-rWcRn2ACBWdOzfR-22" target="9C-M-rWcRn2ACBWdOzfR-28" edge="1">
          <mxGeometry relative="1" as="geometry"/>
        </mxCell>
        <mxCell id="9C-M-rWcRn2ACBWdOzfR-39" style="edgeStyle=orthogonalEdgeStyle;rounded=1;orthogonalLoop=1;jettySize=auto;html=1;exitX=1;exitY=0.25;exitDx=0;exitDy=0;entryX=0.344;entryY=0;entryDx=0;entryDy=0;entryPerimeter=0;" parent="1" source="9C-M-rWcRn2ACBWdOzfR-22" target="9C-M-rWcRn2ACBWdOzfR-3" edge="1">
          <mxGeometry relative="1" as="geometry">
            <mxPoint x="384" y="290" as="targetPoint"/>
            <Array as="points">
              <mxPoint x="384" y="380"/>
            </Array>
          </mxGeometry>
        </mxCell>
        <mxCell id="9C-M-rWcRn2ACBWdOzfR-50" style="edgeStyle=orthogonalEdgeStyle;rounded=1;orthogonalLoop=1;jettySize=auto;html=1;exitX=1;exitY=0.5;exitDx=0;exitDy=0;entryX=0.25;entryY=0;entryDx=0;entryDy=0;" parent="1" source="9C-M-rWcRn2ACBWdOzfR-22" target="9C-M-rWcRn2ACBWdOzfR-52" edge="1">
          <mxGeometry relative="1" as="geometry">
            <mxPoint x="410" y="592" as="targetPoint"/>
          </mxGeometry>
        </mxCell>
        <mxCell id="9C-M-rWcRn2ACBWdOzfR-22" value="&lt;font style=&quot;font-size: 25px&quot;&gt;PC&lt;/font&gt;" style="whiteSpace=wrap;html=1;aspect=fixed;" parent="1" vertex="1">
          <mxGeometry x="300" y="365" width="60" height="60" as="geometry"/>
        </mxCell>
        <mxCell id="9C-M-rWcRn2ACBWdOzfR-23" value="Line&lt;br&gt;Index" style="whiteSpace=wrap;html=1;aspect=fixed;" parent="1" vertex="1">
          <mxGeometry x="480" y="40" width="40" height="40" as="geometry"/>
        </mxCell>
        <mxCell id="9C-M-rWcRn2ACBWdOzfR-51" style="edgeStyle=orthogonalEdgeStyle;rounded=1;orthogonalLoop=1;jettySize=auto;html=1;exitX=0.5;exitY=1;exitDx=0;exitDy=0;entryX=0.75;entryY=0;entryDx=0;entryDy=0;" parent="1" source="9C-M-rWcRn2ACBWdOzfR-24" target="9C-M-rWcRn2ACBWdOzfR-52" edge="1">
          <mxGeometry relative="1" as="geometry">
            <mxPoint x="440" y="590" as="targetPoint"/>
          </mxGeometry>
        </mxCell>
        <mxCell id="9C-M-rWcRn2ACBWdOzfR-24" value="Aux&lt;br&gt;Index" style="whiteSpace=wrap;html=1;aspect=fixed;" parent="1" vertex="1">
          <mxGeometry x="480" y="270" width="40" height="40" as="geometry"/>
        </mxCell>
        <mxCell id="9C-M-rWcRn2ACBWdOzfR-25" value="" style="endArrow=classic;html=1;entryX=0.5;entryY=0;entryDx=0;entryDy=0;exitX=0.5;exitY=1;exitDx=0;exitDy=0;" parent="1" source="9C-M-rWcRn2ACBWdOzfR-23" target="9C-M-rWcRn2ACBWdOzfR-24" edge="1">
          <mxGeometry width="50" height="50" relative="1" as="geometry">
            <mxPoint x="440" y="591" as="sourcePoint"/>
            <mxPoint x="490" y="541" as="targetPoint"/>
            <Array as="points">
              <mxPoint x="500" y="150"/>
              <mxPoint x="510" y="180"/>
              <mxPoint x="500" y="220"/>
            </Array>
          </mxGeometry>
        </mxCell>
        <mxCell id="9C-M-rWcRn2ACBWdOzfR-38" style="edgeStyle=orthogonalEdgeStyle;rounded=1;orthogonalLoop=1;jettySize=auto;html=1;exitX=1;exitY=0.5;exitDx=0;exitDy=0;entryX=0;entryY=0.25;entryDx=0;entryDy=0;" parent="1" source="9C-M-rWcRn2ACBWdOzfR-26" target="9C-M-rWcRn2ACBWdOzfR-31" edge="1">
          <mxGeometry relative="1" as="geometry"/>
        </mxCell>
        <mxCell id="9C-M-rWcRn2ACBWdOzfR-26" value="Branch&lt;br&gt;Exec" style="whiteSpace=wrap;html=1;aspect=fixed;" parent="1" vertex="1">
          <mxGeometry x="40" y="310" width="50" height="50" as="geometry"/>
        </mxCell>
        <mxCell id="9C-M-rWcRn2ACBWdOzfR-37" style="edgeStyle=orthogonalEdgeStyle;rounded=1;orthogonalLoop=1;jettySize=auto;html=1;exitX=0.5;exitY=0;exitDx=0;exitDy=0;entryX=0;entryY=0.5;entryDx=0;entryDy=0;" parent="1" source="9C-M-rWcRn2ACBWdOzfR-27" target="9C-M-rWcRn2ACBWdOzfR-31" edge="1">
          <mxGeometry relative="1" as="geometry"/>
        </mxCell>
        <mxCell id="9C-M-rWcRn2ACBWdOzfR-27" value="Branch&lt;br&gt;Fetch2" style="whiteSpace=wrap;html=1;aspect=fixed;" parent="1" vertex="1">
          <mxGeometry x="100" y="470" width="50" height="50" as="geometry"/>
        </mxCell>
        <mxCell id="9C-M-rWcRn2ACBWdOzfR-34" style="edgeStyle=orthogonalEdgeStyle;rounded=1;orthogonalLoop=1;jettySize=auto;html=1;exitX=0.5;exitY=0;exitDx=0;exitDy=0;entryX=0;entryY=0.75;entryDx=0;entryDy=0;" parent="1" source="9C-M-rWcRn2ACBWdOzfR-28" target="9C-M-rWcRn2ACBWdOzfR-31" edge="1">
          <mxGeometry relative="1" as="geometry"/>
        </mxCell>
        <mxCell id="9C-M-rWcRn2ACBWdOzfR-28" value="&lt;font style=&quot;font-size: 32px&quot;&gt;+&lt;/font&gt;" style="shape=trapezoid;perimeter=trapezoidPerimeter;whiteSpace=wrap;html=1;direction=north;" parent="1" vertex="1">
          <mxGeometry x="310" y="455" width="40" height="40" as="geometry"/>
        </mxCell>
        <mxCell id="9C-M-rWcRn2ACBWdOzfR-33" value="" style="edgeStyle=orthogonalEdgeStyle;rounded=1;orthogonalLoop=1;jettySize=auto;html=1;" parent="1" source="9C-M-rWcRn2ACBWdOzfR-31" target="9C-M-rWcRn2ACBWdOzfR-22" edge="1">
          <mxGeometry relative="1" as="geometry"/>
        </mxCell>
        <mxCell id="9C-M-rWcRn2ACBWdOzfR-31" value="&lt;font style=&quot;font-size: 18px&quot;&gt;K&lt;/font&gt;" style="rounded=0;whiteSpace=wrap;html=1;" parent="1" vertex="1">
          <mxGeometry x="220" y="355" width="40" height="80" as="geometry"/>
        </mxCell>
        <mxCell id="9C-M-rWcRn2ACBWdOzfR-45" style="edgeStyle=orthogonalEdgeStyle;rounded=1;orthogonalLoop=1;jettySize=auto;html=1;exitX=0.5;exitY=0;exitDx=0;exitDy=0;entryX=0;entryY=0.5;entryDx=0;entryDy=0;" parent="1" source="9C-M-rWcRn2ACBWdOzfR-42" target="9C-M-rWcRn2ACBWdOzfR-43" edge="1">
          <mxGeometry relative="1" as="geometry"/>
        </mxCell>
        <mxCell id="9C-M-rWcRn2ACBWdOzfR-42" value="&lt;font style=&quot;font-size: 32px&quot;&gt;+&lt;/font&gt;" style="shape=trapezoid;perimeter=trapezoidPerimeter;whiteSpace=wrap;html=1;direction=north;" parent="1" vertex="1">
          <mxGeometry x="130" y="275" width="40" height="40" as="geometry"/>
        </mxCell>
        <mxCell id="9C-M-rWcRn2ACBWdOzfR-44" style="edgeStyle=orthogonalEdgeStyle;rounded=1;orthogonalLoop=1;jettySize=auto;html=1;exitX=1;exitY=0.5;exitDx=0;exitDy=0;entryX=0.5;entryY=1;entryDx=0;entryDy=0;" parent="1" source="9C-M-rWcRn2ACBWdOzfR-43" target="9C-M-rWcRn2ACBWdOzfR-42" edge="1">
          <mxGeometry relative="1" as="geometry"/>
        </mxCell>
        <mxCell id="9C-M-rWcRn2ACBWdOzfR-49" style="edgeStyle=orthogonalEdgeStyle;rounded=1;orthogonalLoop=1;jettySize=auto;html=1;exitX=1;exitY=0.5;exitDx=0;exitDy=0;entryX=0.594;entryY=0.006;entryDx=0;entryDy=0;entryPerimeter=0;" parent="1" source="9C-M-rWcRn2ACBWdOzfR-43" target="9C-M-rWcRn2ACBWdOzfR-3" edge="1">
          <mxGeometry relative="1" as="geometry">
            <mxPoint x="345" y="290" as="targetPoint"/>
            <Array as="points">
              <mxPoint x="260" y="255"/>
              <mxPoint x="260" y="300"/>
              <mxPoint x="345" y="300"/>
            </Array>
          </mxGeometry>
        </mxCell>
        <mxCell id="9C-M-rWcRn2ACBWdOzfR-43" value="Aux&lt;br&gt;Writer" style="whiteSpace=wrap;html=1;aspect=fixed;" parent="1" vertex="1">
          <mxGeometry x="130" y="235" width="40" height="40" as="geometry"/>
        </mxCell>
        <mxCell id="9C-M-rWcRn2ACBWdOzfR-52" value="&lt;font style=&quot;font-size: 18px&quot;&gt;=&lt;br&gt;&lt;/font&gt;" style="rounded=0;whiteSpace=wrap;html=1;" parent="1" vertex="1">
          <mxGeometry x="460" y="375" width="40" height="40" as="geometry"/>
        </mxCell>
        <mxCell id="9C-M-rWcRn2ACBWdOzfR-53" value="New&lt;br&gt;Line" style="whiteSpace=wrap;html=1;aspect=fixed;" parent="1" vertex="1">
          <mxGeometry x="600" y="40" width="40" height="40" as="geometry"/>
        </mxCell>
        <mxCell id="qdG7tndrK3YDn_whu72I-2" value="PC" style="whiteSpace=wrap;html=1;aspect=fixed;" vertex="1" parent="1">
          <mxGeometry x="520" y="480" width="40" height="40" as="geometry"/>
        </mxCell>
        <mxCell id="qdG7tndrK3YDn_whu72I-3" value="" style="endArrow=classic;html=1;exitX=1;exitY=0.5;exitDx=0;exitDy=0;entryX=0.5;entryY=0;entryDx=0;entryDy=0;" edge="1" parent="1" source="9C-M-rWcRn2ACBWdOzfR-22" target="qdG7tndrK3YDn_whu72I-2">
          <mxGeometry width="50" height="50" relative="1" as="geometry">
            <mxPoint x="40" y="590" as="sourcePoint"/>
            <mxPoint x="90" y="540" as="targetPoint"/>
            <Array as="points">
              <mxPoint x="400" y="395"/>
              <mxPoint x="400" y="460"/>
              <mxPoint x="540" y="460"/>
            </Array>
          </mxGeometry>
        </mxCell>
      </root>
    </mxGraphModel>
  </diagram>
</mxfile>
